<svg width="28" height="28" viewBox="0 0 28 28" fill="none" xmlns="http://www.w3.org/2000/svg">
<path d="M18.0898 11C17.8256 11 17.5925 10.8272 17.5157 10.5744L14.5741 0.890039C14.4017 0.322549 13.5983 0.322551 13.4259 0.89004L10.4843 10.5744C10.4075 10.8272 10.1744 11 9.91018 11H0.873759C0.289914 11 0.049992 11.7493 0.525241 12.0884L7.91716 17.3632C8.12778 17.5135 8.21832 17.7819 8.1418 18.0291L5.29844 27.2125C5.12583 27.77 5.77007 28.2208 6.23468 27.8676L13.6372 22.2408C13.8516 22.0778 14.1484 22.0777 14.363 22.2405L21.7814 27.8703C22.2461 28.223 22.8898 27.7722 22.7173 27.2149L19.8731 18.0287C19.7966 17.7817 19.887 17.5135 20.0974 17.3631L27.4776 12.0881C27.9524 11.7488 27.7123 11 27.1287 11H18.0898Z" fill="#F87C09"/>
</svg>
